<svg width="1440" height="1024" viewBox="0 0 1440 1024" fill="none" xmlns="http://www.w3.org/2000/svg">
<path d="M54.8829 103.806C54.0337 66.8102 24.977 59.9478 10.5547 61.1412C19.7954 48.5322 30.8567 48.2326 35.2322 49.6589C34.363 45.7745 46.1543 34.5188 46.7917 32.5425C47.1948 31.2925 52.003 22.8576 54.4237 19C67.142 33.6681 53.7624 49.077 45.4828 54.9479L49.7097 59.0496L63.7023 44.0047C71.4429 54.2674 61.8725 64.9675 56.1197 69.0347C58.5356 71.371 61.6704 81.5961 54.8829 103.806Z" fill="white" fill-opacity="0.03"/>
<path d="M499.576 56.8879C536.581 57.174 544.332 28.3413 543.581 13.8893C555.901 23.5124 555.861 34.5777 554.301 38.9074C558.21 38.1578 569.099 50.2888 571.055 50.9865C572.292 51.4277 580.575 56.4924 584.357 59.0303C569.306 71.2927 554.314 57.4467 548.7 48.9909L544.471 53.09L559.079 67.5375C548.584 74.9597 538.183 65.0656 534.294 59.1907C531.884 61.5338 521.568 64.3535 499.576 56.8879Z" fill="white" fill-opacity="0.03"/>
<path d="M1065.2 106.79C1032.77 88.9589 1012.25 110.649 1006.05 123.722C999.779 109.402 1005.07 99.6838 1008.5 96.6148C1004.7 95.4174 1000.89 79.57 999.496 78.0269C998.617 77.051 993.734 68.6592 991.612 64.6296C1010.68 60.9893 1017.3 80.2948 1018.22 90.4025L1023.89 88.8047L1017.9 69.1516C1030.66 67.6062 1035.11 81.2538 1035.74 88.2708C1038.97 87.3536 1049.39 89.7731 1065.2 106.79Z" fill="white" fill-opacity="0.03"/>
<path d="M712.996 66.2264C749.904 68.9233 759.516 40.657 759.709 26.1867C771.376 36.5922 770.615 47.6314 768.776 51.8503C772.726 51.3569 782.801 64.1717 784.707 64.9954C785.913 65.5163 793.849 71.11 797.457 73.8889C781.638 85.1444 767.581 70.351 762.53 61.5473L758.042 65.3621L771.679 80.7309C760.722 87.4534 750.987 76.9025 747.49 70.7867C744.933 72.9678 734.454 75.1092 712.996 66.2264Z" fill="white" fill-opacity="0.03"/>
<path d="M333.24 81.7968C298.263 69.712 281.713 94.5615 277.81 108.497C269.207 95.4443 272.778 84.9708 275.638 81.3655C271.694 80.828 265.248 65.8556 263.617 64.57C262.586 63.7569 256.353 56.3127 253.579 52.7005C271.758 45.8849 281.544 63.7922 284.165 73.5978L289.482 71.0635L280.25 52.7082C292.566 49.025 299.264 61.7221 301.074 68.531C304.105 67.0797 314.782 67.7011 333.24 81.7968Z" fill="white" fill-opacity="0.03"/>
<path d="M114.574 212.455C150.618 204.072 151.405 174.226 147.293 160.351C161.523 166.824 164.074 177.591 163.571 182.165C167.196 180.522 180.621 189.767 182.686 189.988C183.992 190.127 193.231 193.113 197.501 194.695C185.738 210.139 167.923 200.187 160.485 193.28L157.333 198.255L174.917 208.882C166.45 218.554 154.022 211.37 148.866 206.568C147.072 209.41 137.702 214.566 114.574 212.455Z" fill="white" fill-opacity="0.03"/>
<path d="M602.186 205.455C638.23 197.072 639.017 167.226 634.905 153.351C649.134 159.824 651.685 170.591 651.182 175.165C654.807 173.522 668.233 182.767 670.298 182.988C671.604 183.127 680.843 186.113 685.113 187.695C673.35 203.139 655.534 193.187 648.097 186.28L644.944 191.255L662.529 201.882C654.062 211.554 641.634 204.37 636.478 199.568C634.684 202.41 625.314 207.566 602.186 205.455Z" fill="white" fill-opacity="0.03"/>
<path d="M1089.8 198.455C1125.84 190.072 1126.63 160.226 1122.52 146.351C1136.75 152.824 1139.3 163.591 1138.79 168.165C1142.42 166.522 1155.84 175.767 1157.91 175.988C1159.22 176.127 1168.45 179.113 1172.72 180.695C1160.96 196.139 1143.15 186.187 1135.71 179.28L1132.56 184.255L1150.14 194.882C1141.67 204.554 1129.25 197.37 1124.09 192.568C1122.3 195.41 1112.93 200.566 1089.8 198.455Z" fill="white" fill-opacity="0.03"/>
<path d="M58.5874 390.01C67.296 354.044 40.9872 339.929 26.7442 337.367C38.9208 327.563 49.686 330.123 53.5466 332.628C53.7072 328.651 67.9998 320.812 69.1247 319.067C69.8362 317.963 76.6548 311.051 79.9873 307.947C88.4984 325.396 71.6014 336.839 62.089 340.379L65.1167 345.431L82.5124 334.498C87.3485 346.408 75.3449 354.282 68.7387 356.73C70.4712 359.61 70.8666 370.298 58.5874 390.01Z" fill="white" fill-opacity="0.03"/>
<path d="M546.199 383.01C554.908 347.044 528.599 332.929 514.356 330.367C526.532 320.563 537.298 323.123 541.158 325.628C541.319 321.651 555.611 313.812 556.736 312.067C557.448 310.963 564.266 304.051 567.599 300.947C576.11 318.396 559.213 329.839 549.701 333.379L552.728 338.431L570.124 327.498C574.96 339.408 562.957 347.282 556.35 349.73C558.083 352.61 558.478 363.298 546.199 383.01Z" fill="white" fill-opacity="0.03"/>
<path d="M1033.81 376.01C1042.52 340.044 1016.21 325.929 1001.97 323.367C1014.14 313.563 1024.91 316.123 1028.77 318.628C1028.93 314.651 1043.22 306.812 1044.35 305.067C1045.06 303.963 1051.88 297.051 1055.21 293.947C1063.72 311.396 1046.82 322.839 1037.31 326.379L1040.34 331.431L1057.74 320.498C1062.57 332.408 1050.57 340.282 1043.96 342.73C1045.69 345.61 1046.09 356.298 1033.81 376.01Z" fill="white" fill-opacity="0.03"/>
<path d="M256.766 447.063C265.474 411.097 239.166 396.982 224.923 394.42C237.099 384.616 247.865 387.176 251.725 389.681C251.886 385.704 266.178 377.865 267.303 376.12C268.015 375.016 274.833 368.104 278.166 365C286.677 382.449 269.78 393.892 260.267 397.432L263.295 402.484L280.691 391.551C285.527 403.461 273.523 411.335 266.917 413.783C268.65 416.663 269.045 427.351 256.766 447.063Z" fill="white" fill-opacity="0.03"/>
<path d="M744.377 440.063C753.086 404.097 726.777 389.982 712.534 387.42C724.711 377.616 735.476 380.176 739.337 382.681C739.497 378.704 753.79 370.865 754.915 369.12C755.626 368.016 762.445 361.104 765.777 358C774.288 375.449 757.391 386.892 747.879 390.432L750.907 395.484L768.302 384.551C773.139 396.461 761.135 404.335 754.529 406.783C756.261 409.663 756.657 420.351 744.377 440.063Z" fill="white" fill-opacity="0.03"/>
<path d="M1276.72 456.116C1313.3 461.706 1325.11 434.284 1326.44 419.873C1337.25 431.164 1335.62 442.109 1333.46 446.17C1337.43 445.989 1346.47 459.557 1348.31 460.528C1349.47 461.142 1356.94 467.342 1360.32 470.396C1343.66 480.373 1330.81 464.52 1326.47 455.346L1321.69 458.796L1334.08 475.19C1322.63 481.03 1313.75 469.746 1310.75 463.374C1308.03 465.348 1297.41 466.658 1276.72 456.116Z" fill="white" fill-opacity="0.03"/>
<path d="M63.7661 611.983C41.4576 582.457 13.8682 593.868 2.86204 603.264C2.99249 587.632 11.7935 580.925 16.1777 579.526C13.2025 576.882 16.1935 560.857 15.5558 558.881C15.1525 557.631 14.1252 547.977 13.8353 543.432C32.7277 547.902 30.8747 568.225 27.5867 577.828L33.4136 578.686L35.9768 558.301C48.2554 562.105 46.7419 576.381 44.4503 583.043C47.776 583.527 56.2951 589.993 63.7661 611.983Z" fill="white" fill-opacity="0.03"/>
<path d="M551.378 604.983C529.069 575.457 501.48 586.868 490.474 596.264C490.604 580.632 499.405 573.925 503.789 572.526C500.814 569.882 503.805 553.857 503.167 551.881C502.764 550.631 501.737 540.977 501.447 536.432C520.339 540.902 518.486 561.225 515.198 570.828L521.025 571.686L523.588 551.301C535.867 555.105 534.353 569.381 532.062 576.043C535.388 576.527 543.907 582.993 551.378 604.983Z" fill="white" fill-opacity="0.03"/>
<path d="M1038.99 597.983C1016.68 568.457 989.091 579.868 978.085 589.264C978.216 573.632 987.017 566.925 991.401 565.526C988.426 562.882 991.417 546.857 990.779 544.881C990.376 543.631 989.348 533.977 989.058 529.432C1007.95 533.902 1006.1 554.225 1002.81 563.828L1008.64 564.686L1011.2 544.301C1023.48 548.105 1021.96 562.381 1019.67 569.043C1023 569.527 1031.52 575.993 1038.99 597.983Z" fill="white" fill-opacity="0.03"/>
<path d="M273.378 580.551C251.069 551.025 223.48 562.436 212.474 571.833C212.604 556.201 221.405 549.494 225.789 548.094C222.814 545.45 225.805 529.426 225.167 527.449C224.764 526.2 223.737 516.545 223.447 512C242.339 516.471 240.486 536.794 237.198 546.396L243.025 547.254L245.588 526.869C257.867 530.674 256.353 544.949 254.062 551.611C257.388 552.096 265.907 558.561 273.378 580.551Z" fill="white" fill-opacity="0.03"/>
<path d="M760.989 573.551C738.681 544.025 711.091 555.436 700.085 564.833C700.216 549.201 709.017 542.494 713.401 541.094C710.426 538.45 713.417 522.426 712.779 520.449C712.376 519.2 711.348 509.545 711.058 505C729.951 509.471 728.098 529.794 724.81 539.396L730.637 540.254L733.2 519.869C745.479 523.674 743.965 537.949 741.673 544.611C744.999 545.096 753.518 551.561 760.989 573.551Z" fill="white" fill-opacity="0.03"/>
<path d="M1226.45 580.674C1229.56 617.549 1258.98 622.621 1273.31 620.548C1264.85 633.698 1253.83 634.674 1249.38 633.518C1250.48 637.342 1239.4 649.298 1238.89 651.31C1238.56 652.582 1234.28 661.295 1232.1 665.294C1218.51 651.431 1230.92 635.232 1238.82 628.866L1234.35 625.031L1221.31 640.903C1212.95 631.133 1221.85 619.868 1227.34 615.456C1224.79 613.272 1221.03 603.258 1226.45 580.674Z" fill="white" fill-opacity="0.03"/>
<path d="M172.378 790.551C150.069 761.025 122.48 772.436 111.474 781.833C111.604 766.201 120.405 759.494 124.789 758.094C121.814 755.45 124.805 739.426 124.167 737.449C123.764 736.2 122.737 726.545 122.447 722C141.339 726.471 139.486 746.794 136.198 756.396L142.025 757.254L144.588 736.869C156.867 740.674 155.353 754.949 153.062 761.611C156.388 762.096 164.907 768.561 172.378 790.551Z" fill="white" fill-opacity="0.03"/>
<path d="M1345.38 132.551C1323.07 103.025 1295.48 114.436 1284.47 123.833C1284.6 108.201 1293.41 101.494 1297.79 100.094C1294.81 97.45 1297.81 81.4257 1297.17 79.4494C1296.76 78.1996 1295.74 68.5449 1295.45 64C1314.34 68.4708 1312.49 88.7936 1309.2 98.3961L1315.03 99.2545L1317.59 78.8689C1329.87 82.6736 1328.35 96.9492 1326.06 103.611C1329.39 104.096 1337.91 110.561 1345.38 132.551Z" fill="white" fill-opacity="0.03"/>
<path d="M659.989 783.551C637.681 754.025 610.091 765.436 599.085 774.833C599.216 759.201 608.017 752.494 612.401 751.094C609.426 748.45 612.417 732.426 611.779 730.449C611.376 729.2 610.348 719.545 610.058 715C628.951 719.471 627.098 739.794 623.81 749.396L629.637 750.254L632.2 729.869C644.479 733.674 642.965 747.949 640.673 754.611C643.999 755.096 652.518 761.561 659.989 783.551Z" fill="white" fill-opacity="0.03"/>
<path d="M1147.6 776.551C1125.29 747.025 1097.7 758.436 1086.7 767.833C1086.83 752.201 1095.63 745.494 1100.01 744.094C1097.04 741.45 1100.03 725.426 1099.39 723.449C1098.99 722.2 1097.96 712.545 1097.67 708C1116.56 712.471 1114.71 732.794 1111.42 742.396L1117.25 743.254L1119.81 722.869C1132.09 726.674 1130.58 740.949 1128.29 747.611C1131.61 748.096 1140.13 754.561 1147.6 776.551Z" fill="white" fill-opacity="0.03"/>
<path d="M7.40461 977.549C44.2351 981.149 54.5373 953.126 55.0846 938.665C66.4925 949.353 65.4616 960.37 63.5202 964.543C67.4808 964.146 77.239 977.204 79.1245 978.074C80.317 978.624 88.1135 984.411 91.6524 987.277C75.5631 998.142 61.8725 983.009 57.0384 974.084L52.4588 977.788L65.7144 993.486C54.5964 999.938 45.1231 989.152 41.7761 982.952C39.1667 985.07 28.6391 986.954 7.40461 977.549Z" fill="white" fill-opacity="0.03"/>
<path d="M503.13 991.511C514.142 956.182 488.799 940.398 474.751 936.923C487.534 927.926 498.112 931.175 501.803 933.924C502.22 929.965 516.988 923.065 518.224 921.396C519.005 920.34 526.255 913.882 529.781 911C537.148 928.962 519.548 939.29 509.827 942.21L512.523 947.446L530.588 937.659C534.645 949.856 522.158 956.939 515.408 958.956C516.951 961.941 516.656 972.632 503.13 991.511Z" fill="white" fill-opacity="0.03"/>
<path d="M1059.26 903.318C1072.24 937.973 1101.94 934.888 1115.16 929.014C1110.59 943.962 1100.24 947.886 1095.64 947.98C1097.74 951.361 1090.31 965.871 1090.36 967.947C1090.39 969.26 1088.63 978.808 1087.61 983.247C1070.77 973.583 1078.33 954.629 1084.22 946.359L1078.88 943.878L1070.62 962.69C1059.93 955.547 1065.44 942.293 1069.54 936.559C1066.49 935.148 1060.16 926.525 1059.26 903.318Z" fill="white" fill-opacity="0.03"/>
<path d="M209.349 934.847C240.517 914.897 231.281 886.505 222.766 874.803C238.341 876.146 244.345 885.441 245.4 889.92C248.267 887.159 264.011 891.384 266.031 890.902C267.308 890.597 277.014 890.321 281.567 890.385C275.644 908.873 255.527 905.45 246.208 901.426L244.9 907.169L265.026 911.306C260.28 923.253 246.165 920.636 239.7 917.835C238.96 921.113 231.853 929.105 209.349 934.847Z" fill="white" fill-opacity="0.03"/>
<path d="M796.92 980.826C816.153 949.211 795.383 927.764 782.593 920.993C797.174 915.356 806.651 921.068 809.567 924.629C810.93 920.889 826.929 917.768 828.531 916.447C829.545 915.611 838.143 911.1 842.261 909.157C845.063 928.368 825.486 934.13 815.348 934.61L816.696 940.344L836.593 935.218C837.578 948.035 823.748 951.886 816.71 952.209C817.485 955.48 814.612 965.781 796.92 980.826Z" fill="white" fill-opacity="0.03"/>
<path d="M1201.63 956.549C1238.46 960.149 1248.76 932.126 1249.31 917.665C1260.72 928.353 1259.68 939.37 1257.74 943.543C1261.7 943.146 1271.46 956.204 1273.35 957.074C1274.54 957.624 1282.34 963.411 1285.88 966.277C1269.79 977.142 1256.1 962.009 1251.26 953.084L1246.68 956.788L1259.94 972.486C1248.82 978.938 1239.35 968.152 1236 961.952C1233.39 964.07 1222.86 965.954 1201.63 956.549Z" fill="white" fill-opacity="0.03"/>
<path d="M1298.58 839.512C1310.06 804.333 1284.93 788.212 1270.93 784.549C1283.83 775.724 1294.37 779.114 1298.02 781.912C1298.49 777.959 1313.35 771.257 1314.61 769.605C1315.4 768.559 1322.74 762.199 1326.3 759.364C1333.43 777.423 1315.69 787.516 1305.93 790.304L1308.56 795.577L1326.75 786.031C1330.65 798.282 1318.07 805.197 1311.29 807.124C1312.79 810.13 1312.36 820.815 1298.58 839.512Z" fill="white" fill-opacity="0.03"/>
<path d="M1272.26 263.638C1288.41 230.345 1265.71 210.959 1252.33 205.428C1266.32 198.438 1276.29 203.227 1279.53 206.496C1280.53 202.644 1296.17 198.023 1297.64 196.556C1298.57 195.629 1306.7 190.324 1310.61 188C1315.22 206.86 1296.28 214.449 1286.23 215.886L1288.12 221.466L1307.44 214.481C1309.63 227.147 1296.23 232.289 1289.25 233.277C1290.33 236.459 1288.45 246.986 1272.26 263.638Z" fill="white" fill-opacity="0.03"/>
</svg>
